<svg xmlns="http://www.w3.org/2000/svg" width="760" height="250" viewBox="0 0 760 250" font-family='system-ui,-apple-system,"Segoe UI","Malgun Gothic","Apple SD Gothic Neo",sans-serif'>
<rect width="760" height="250" fill="#1a1a19"/>
<text x="20" y="28" font-size="14.5" font-weight="700" fill="#ffffff">ATR (14)</text>
<text x="20" y="46" font-size="11" fill="#c3c2b7">원. 일 평균 변동폭 — 높을수록 변동성 큼.</text>
<line x1="677" y1="24" x2="695" y2="24" stroke="#d55181" stroke-width="2"/>
<text x="700" y="28" font-size="10.5" fill="#c3c2b7">ATR</text>
<line x1="64" y1="220.0" x2="740" y2="220.0" stroke="#2c2c2a" stroke-width="1"/>
<text x="58" y="223.5" font-size="10" fill="#898781" text-anchor="end" style="font-variant-numeric:tabular-nums">4만</text>
<line x1="64" y1="168.0" x2="740" y2="168.0" stroke="#2c2c2a" stroke-width="1"/>
<text x="58" y="171.5" font-size="10" fill="#898781" text-anchor="end" style="font-variant-numeric:tabular-nums">11만</text>
<line x1="64" y1="116.0" x2="740" y2="116.0" stroke="#2c2c2a" stroke-width="1"/>
<text x="58" y="119.5" font-size="10" fill="#898781" text-anchor="end" style="font-variant-numeric:tabular-nums">18만</text>
<line x1="64" y1="64.0" x2="740" y2="64.0" stroke="#2c2c2a" stroke-width="1"/>
<text x="58" y="67.5" font-size="10" fill="#898781" text-anchor="end" style="font-variant-numeric:tabular-nums">25만</text>
<path d="M69.1,202.3 L79.4,203.5 L89.6,204.5 L99.8,203.2 L110.1,202.9 L120.3,204.8 L130.6,206.3 L140.8,207.1 L151.1,207.0 L161.3,208.1 L171.5,206.8 L181.8,207.4 L192.0,205.5 L202.3,206.9 L212.5,208.2 L222.8,209.2 L233.0,203.6 L243.2,198.1 L253.5,196.8 L263.7,195.5 L274.0,185.5 L284.2,181.6 L294.5,175.5 L304.7,177.9 L314.9,172.3 L325.2,169.1 L335.4,169.7 L345.7,170.9 L355.9,165.6 L366.2,169.6 L376.4,167.7 L386.6,157.5 L396.9,156.0 L407.1,158.1 L417.4,159.4 L427.6,158.1 L437.8,159.6 L448.1,154.1 L458.3,149.5 L468.6,140.1 L478.8,136.2 L489.1,133.7 L499.3,131.4 L509.5,130.8 L519.8,133.4 L530.0,131.8 L540.3,128.9 L550.5,126.7 L560.8,124.1 L571.0,111.6 L581.2,108.4 L591.5,99.2 L601.7,93.3 L612.0,95.5 L622.2,96.0 L632.5,95.4 L642.7,86.7 L652.9,76.8 L663.2,78.4 L673.4,76.8 L683.7,75.9 L693.9,78.2 L704.2,83.2 L714.4,77.1 L724.6,75.9 L734.9,74.8" fill="none" stroke="#d55181" stroke-width="1.8"/>
<text x="69.1" y="238" font-size="10" fill="#898781" text-anchor="middle">04/09</text>
<text x="181.8" y="238" font-size="10" fill="#898781" text-anchor="middle">04/24</text>
<text x="294.5" y="238" font-size="10" fill="#898781" text-anchor="middle">05/13</text>
<text x="407.1" y="238" font-size="10" fill="#898781" text-anchor="middle">05/29</text>
<text x="519.8" y="238" font-size="10" fill="#898781" text-anchor="middle">06/16</text>
<text x="632.5" y="238" font-size="10" fill="#898781" text-anchor="middle">07/01</text>
</svg>