<svg xmlns="http://www.w3.org/2000/svg" width="760" height="560" viewBox="0 0 760 560" font-family='system-ui,-apple-system,"Segoe UI","Malgun Gothic","Apple SD Gothic Neo",sans-serif'>
<rect width="760" height="560" fill="#1a1a19"/>
<text x="20" y="28" font-size="14.5" font-weight="700" fill="#ffffff">일봉 차트 (최근 3개월)</text>
<text x="20" y="46" font-size="11" fill="#c3c2b7">원. 상승=빨강 / 하락=파랑 (국내 관례). 아래: 거래량과 20일 이평선.</text>
<line x1="518" y1="24" x2="536" y2="24" stroke="#e66767" stroke-width="2"/>
<text x="541" y="28" font-size="10.5" fill="#c3c2b7">상승</text>
<line x1="570" y1="24" x2="588" y2="24" stroke="#3987e5" stroke-width="2"/>
<text x="593" y="28" font-size="10.5" fill="#c3c2b7">하락</text>
<line x1="622" y1="24" x2="640" y2="24" stroke="#008300" stroke-width="2"/>
<text x="645" y="28" font-size="10.5" fill="#c3c2b7">거래량 MA20</text>
<line x1="64" y1="394.0" x2="740" y2="394.0" stroke="#2c2c2a" stroke-width="1"/>
<text x="58" y="397.5" font-size="10" fill="#898781" text-anchor="end" style="font-variant-numeric:tabular-nums">97만</text>
<line x1="64" y1="311.5" x2="740" y2="311.5" stroke="#2c2c2a" stroke-width="1"/>
<text x="58" y="315.0" font-size="10" fill="#898781" text-anchor="end" style="font-variant-numeric:tabular-nums">149만</text>
<line x1="64" y1="229.0" x2="740" y2="229.0" stroke="#2c2c2a" stroke-width="1"/>
<text x="58" y="232.5" font-size="10" fill="#898781" text-anchor="end" style="font-variant-numeric:tabular-nums">201만</text>
<line x1="64" y1="146.5" x2="740" y2="146.5" stroke="#2c2c2a" stroke-width="1"/>
<text x="58" y="150.0" font-size="10" fill="#898781" text-anchor="end" style="font-variant-numeric:tabular-nums">253만</text>
<line x1="64" y1="64.0" x2="740" y2="64.0" stroke="#2c2c2a" stroke-width="1"/>
<text x="58" y="67.5" font-size="10" fill="#898781" text-anchor="end" style="font-variant-numeric:tabular-nums">305만</text>
<line x1="69.1" y1="385.3" x2="69.1" y2="390.9" stroke="#3987e5" stroke-width="1.2"/>
<rect x="65.7" y="386.9" width="6.8" height="2.7" fill="#3987e5"/>
<line x1="79.4" y1="382.6" x2="79.4" y2="385.5" stroke="#3987e5" stroke-width="1.2"/>
<rect x="76.0" y="384.5" width="6.8" height="1.2" fill="#3987e5"/>
<line x1="89.6" y1="382.4" x2="89.6" y2="389.9" stroke="#e66767" stroke-width="1.2"/>
<rect x="86.2" y="382.9" width="6.8" height="6.5" fill="#e66767"/>
<line x1="99.8" y1="368.9" x2="99.8" y2="376.9" stroke="#e66767" stroke-width="1.2"/>
<rect x="96.5" y="372.9" width="6.8" height="1.7" fill="#e66767"/>
<line x1="110.1" y1="361.8" x2="110.1" y2="368.6" stroke="#3987e5" stroke-width="1.2"/>
<rect x="106.7" y="363.0" width="6.8" height="4.6" fill="#3987e5"/>
<line x1="120.3" y1="363.7" x2="120.3" y2="368.6" stroke="#e66767" stroke-width="1.2"/>
<rect x="117.0" y="364.6" width="6.8" height="2.2" fill="#e66767"/>
<line x1="130.6" y1="364.6" x2="130.6" y2="370.0" stroke="#3987e5" stroke-width="1.2"/>
<rect x="127.2" y="365.6" width="6.8" height="3.3" fill="#3987e5"/>
<line x1="140.8" y1="361.5" x2="140.8" y2="366.9" stroke="#e66767" stroke-width="1.2"/>
<rect x="137.4" y="362.9" width="6.8" height="2.9" fill="#e66767"/>
<line x1="151.1" y1="353.0" x2="151.1" y2="358.6" stroke="#e66767" stroke-width="1.2"/>
<rect x="147.7" y="353.7" width="6.8" height="4.4" fill="#e66767"/>
<line x1="161.3" y1="352.2" x2="161.3" y2="358.3" stroke="#3987e5" stroke-width="1.2"/>
<rect x="157.9" y="353.2" width="6.8" height="1.2" fill="#3987e5"/>
<line x1="171.5" y1="346.8" x2="171.5" y2="360.2" stroke="#e66767" stroke-width="1.2"/>
<rect x="168.2" y="353.5" width="6.8" height="1.2" fill="#e66767"/>
<line x1="181.8" y1="350.8" x2="181.8" y2="358.6" stroke="#3987e5" stroke-width="1.2"/>
<rect x="178.4" y="351.6" width="6.8" height="2.4" fill="#3987e5"/>
<line x1="192.0" y1="338.9" x2="192.0" y2="349.7" stroke="#e66767" stroke-width="1.2"/>
<rect x="188.7" y="342.9" width="6.8" height="6.2" fill="#e66767"/>
<line x1="202.3" y1="337.1" x2="202.3" y2="342.2" stroke="#3987e5" stroke-width="1.2"/>
<rect x="198.9" y="339.5" width="6.8" height="2.1" fill="#3987e5"/>
<line x1="212.5" y1="338.9" x2="212.5" y2="344.6" stroke="#e66767" stroke-width="1.2"/>
<rect x="209.1" y="342.7" width="6.8" height="1.4" fill="#e66767"/>
<line x1="222.8" y1="337.6" x2="222.8" y2="343.8" stroke="#3987e5" stroke-width="1.2"/>
<rect x="219.4" y="339.7" width="6.8" height="4.1" fill="#3987e5"/>
<line x1="233.0" y1="317.8" x2="233.0" y2="336.3" stroke="#e66767" stroke-width="1.2"/>
<rect x="229.6" y="318.2" width="6.8" height="17.2" fill="#e66767"/>
<line x1="243.2" y1="291.7" x2="243.2" y2="300.7" stroke="#e66767" stroke-width="1.2"/>
<rect x="239.9" y="293.8" width="6.8" height="1.7" fill="#e66767"/>
<line x1="253.5" y1="283.6" x2="253.5" y2="299.2" stroke="#e66767" stroke-width="1.2"/>
<rect x="250.1" y="285.3" width="6.8" height="5.1" fill="#e66767"/>
<line x1="263.7" y1="279.8" x2="263.7" y2="295.3" stroke="#e66767" stroke-width="1.2"/>
<rect x="260.3" y="280.2" width="6.8" height="15.1" fill="#e66767"/>
<line x1="274.0" y1="238.5" x2="274.0" y2="258.0" stroke="#e66767" stroke-width="1.2"/>
<rect x="270.6" y="249.4" width="6.8" height="7.5" fill="#e66767"/>
<line x1="284.2" y1="235.6" x2="284.2" y2="261.5" stroke="#3987e5" stroke-width="1.2"/>
<rect x="280.8" y="239.2" width="6.8" height="17.3" fill="#3987e5"/>
<line x1="294.5" y1="231.9" x2="294.5" y2="265.1" stroke="#e66767" stroke-width="1.2"/>
<rect x="291.1" y="234.2" width="6.8" height="31.0" fill="#e66767"/>
<line x1="304.7" y1="231.3" x2="304.7" y2="240.4" stroke="#3987e5" stroke-width="1.2"/>
<rect x="301.3" y="234.2" width="6.8" height="1.2" fill="#3987e5"/>
<line x1="314.9" y1="231.1" x2="314.9" y2="263.9" stroke="#3987e5" stroke-width="1.2"/>
<rect x="311.6" y="238.3" width="6.8" height="20.8" fill="#3987e5"/>
<line x1="325.2" y1="246.7" x2="325.2" y2="273.1" stroke="#e66767" stroke-width="1.2"/>
<rect x="321.8" y="255.8" width="6.8" height="9.5" fill="#e66767"/>
<line x1="335.4" y1="258.5" x2="335.4" y2="271.7" stroke="#3987e5" stroke-width="1.2"/>
<rect x="332.0" y="263.6" width="6.8" height="7.3" fill="#3987e5"/>
<line x1="345.7" y1="265.6" x2="345.7" y2="279.6" stroke="#e66767" stroke-width="1.2"/>
<rect x="342.3" y="270.9" width="6.8" height="1.2" fill="#e66767"/>
<line x1="355.9" y1="237.7" x2="355.9" y2="262.8" stroke="#e66767" stroke-width="1.2"/>
<rect x="352.5" y="239.9" width="6.8" height="22.1" fill="#e66767"/>
<line x1="366.2" y1="238.0" x2="366.2" y2="244.3" stroke="#3987e5" stroke-width="1.2"/>
<rect x="362.8" y="239.6" width="6.8" height="1.2" fill="#3987e5"/>
<line x1="376.4" y1="216.5" x2="376.4" y2="229.4" stroke="#e66767" stroke-width="1.2"/>
<rect x="373.0" y="222.1" width="6.8" height="7.0" fill="#e66767"/>
<line x1="386.6" y1="173.5" x2="386.6" y2="198.6" stroke="#3987e5" stroke-width="1.2"/>
<rect x="383.3" y="186.0" width="6.8" height="5.7" fill="#3987e5"/>
<line x1="396.9" y1="181.9" x2="396.9" y2="206.3" stroke="#e66767" stroke-width="1.2"/>
<rect x="393.5" y="184.4" width="6.8" height="15.9" fill="#e66767"/>
<line x1="407.1" y1="170.1" x2="407.1" y2="184.2" stroke="#3987e5" stroke-width="1.2"/>
<rect x="403.7" y="174.4" width="6.8" height="3.0" fill="#3987e5"/>
<line x1="417.4" y1="167.1" x2="417.4" y2="183.3" stroke="#e66767" stroke-width="1.2"/>
<rect x="414.0" y="172.7" width="6.8" height="10.2" fill="#e66767"/>
<line x1="427.6" y1="165.7" x2="427.6" y2="189.2" stroke="#3987e5" stroke-width="1.2"/>
<rect x="424.2" y="170.6" width="6.8" height="2.5" fill="#3987e5"/>
<line x1="437.8" y1="178.4" x2="437.8" y2="188.7" stroke="#e66767" stroke-width="1.2"/>
<rect x="434.5" y="183.0" width="6.8" height="2.2" fill="#e66767"/>
<line x1="448.1" y1="200.5" x2="448.1" y2="219.2" stroke="#3987e5" stroke-width="1.2"/>
<rect x="444.7" y="207.8" width="6.8" height="11.4" fill="#3987e5"/>
<line x1="458.3" y1="218.9" x2="458.3" y2="253.4" stroke="#e66767" stroke-width="1.2"/>
<rect x="455.0" y="244.5" width="6.8" height="8.7" fill="#e66767"/>
<line x1="468.6" y1="194.4" x2="468.6" y2="230.7" stroke="#e66767" stroke-width="1.2"/>
<rect x="465.2" y="196.2" width="6.8" height="26.2" fill="#e66767"/>
<line x1="478.8" y1="201.7" x2="478.8" y2="231.6" stroke="#3987e5" stroke-width="1.2"/>
<rect x="475.4" y="208.6" width="6.8" height="14.1" fill="#3987e5"/>
<line x1="489.1" y1="204.4" x2="489.1" y2="236.7" stroke="#e66767" stroke-width="1.2"/>
<rect x="485.7" y="214.3" width="6.8" height="20.0" fill="#e66767"/>
<line x1="499.3" y1="182.0" x2="499.3" y2="206.5" stroke="#3987e5" stroke-width="1.2"/>
<rect x="495.9" y="185.7" width="6.8" height="20.8" fill="#3987e5"/>
<line x1="509.5" y1="179.2" x2="509.5" y2="188.2" stroke="#e66767" stroke-width="1.2"/>
<rect x="506.2" y="184.6" width="6.8" height="1.2" fill="#e66767"/>
<line x1="519.8" y1="166.8" x2="519.8" y2="184.9" stroke="#e66767" stroke-width="1.2"/>
<rect x="516.4" y="169.6" width="6.8" height="1.2" fill="#e66767"/>
<line x1="530.0" y1="147.2" x2="530.0" y2="177.3" stroke="#e66767" stroke-width="1.2"/>
<rect x="526.7" y="147.5" width="6.8" height="29.6" fill="#e66767"/>
<line x1="540.3" y1="113.1" x2="540.3" y2="142.0" stroke="#e66767" stroke-width="1.2"/>
<rect x="536.9" y="121.5" width="6.8" height="20.5" fill="#e66767"/>
<line x1="550.5" y1="88.7" x2="550.5" y2="121.0" stroke="#3987e5" stroke-width="1.2"/>
<rect x="547.1" y="99.4" width="6.8" height="9.5" fill="#3987e5"/>
<line x1="560.8" y1="80.2" x2="560.8" y2="114.7" stroke="#e66767" stroke-width="1.2"/>
<rect x="557.4" y="84.3" width="6.8" height="30.4" fill="#e66767"/>
<line x1="571.0" y1="80.5" x2="571.0" y2="145.2" stroke="#3987e5" stroke-width="1.2"/>
<rect x="567.6" y="87.6" width="6.8" height="54.5" fill="#3987e5"/>
<line x1="581.2" y1="118.6" x2="581.2" y2="158.4" stroke="#e66767" stroke-width="1.2"/>
<rect x="577.9" y="131.7" width="6.8" height="3.7" fill="#e66767"/>
<line x1="591.5" y1="73.5" x2="591.5" y2="111.3" stroke="#e66767" stroke-width="1.2"/>
<rect x="588.1" y="84.6" width="6.8" height="8.3" fill="#e66767"/>
<line x1="601.7" y1="90.5" x2="601.7" y2="135.0" stroke="#3987e5" stroke-width="1.2"/>
<rect x="598.3" y="95.3" width="6.8" height="28.1" fill="#3987e5"/>
<line x1="612.0" y1="121.0" x2="612.0" y2="148.2" stroke="#3987e5" stroke-width="1.2"/>
<rect x="608.6" y="129.3" width="6.8" height="1.3" fill="#3987e5"/>
<line x1="622.2" y1="112.4" x2="622.2" y2="144.4" stroke="#e66767" stroke-width="1.2"/>
<rect x="618.8" y="127.0" width="6.8" height="6.7" fill="#e66767"/>
<line x1="632.5" y1="115.4" x2="632.5" y2="150.6" stroke="#3987e5" stroke-width="1.2"/>
<rect x="629.1" y="124.7" width="6.8" height="16.7" fill="#3987e5"/>
<line x1="642.7" y1="159.2" x2="642.7" y2="200.6" stroke="#3987e5" stroke-width="1.2"/>
<rect x="639.3" y="174.6" width="6.8" height="26.1" fill="#3987e5"/>
<line x1="652.9" y1="158.2" x2="652.9" y2="223.2" stroke="#e66767" stroke-width="1.2"/>
<rect x="649.6" y="162.8" width="6.8" height="36.2" fill="#e66767"/>
<line x1="663.2" y1="151.4" x2="663.2" y2="183.9" stroke="#3987e5" stroke-width="1.2"/>
<rect x="659.8" y="158.8" width="6.8" height="17.0" fill="#3987e5"/>
<line x1="673.4" y1="175.8" x2="673.4" y2="217.6" stroke="#3987e5" stroke-width="1.2"/>
<rect x="670.0" y="184.4" width="6.8" height="14.0" fill="#3987e5"/>
<line x1="683.7" y1="178.1" x2="683.7" y2="218.3" stroke="#3987e5" stroke-width="1.2"/>
<rect x="680.3" y="211.6" width="6.8" height="6.7" fill="#3987e5"/>
<line x1="693.9" y1="187.4" x2="693.9" y2="215.9" stroke="#3987e5" stroke-width="1.2"/>
<rect x="690.5" y="194.1" width="6.8" height="6.7" fill="#3987e5"/>
<line x1="704.2" y1="181.9" x2="704.2" y2="204.0" stroke="#3987e5" stroke-width="1.2"/>
<rect x="700.8" y="183.3" width="6.8" height="18.4" fill="#3987e5"/>
<line x1="714.4" y1="207.8" x2="714.4" y2="255.9" stroke="#3987e5" stroke-width="1.2"/>
<rect x="711.0" y="212.4" width="6.8" height="42.6" fill="#3987e5"/>
<line x1="724.6" y1="240.5" x2="724.6" y2="281.5" stroke="#e66767" stroke-width="1.2"/>
<rect x="721.3" y="244.2" width="6.8" height="14.0" fill="#e66767"/>
<line x1="734.9" y1="203.2" x2="734.9" y2="219.2" stroke="#3987e5" stroke-width="1.2"/>
<rect x="731.5" y="211.3" width="6.8" height="4.4" fill="#3987e5"/>
<text x="736" y="209.7" font-size="11" font-weight="700" fill="#ffffff" text-anchor="end" style="font-variant-numeric:tabular-nums">209만</text>
<line x1="64" y1="470" x2="740" y2="470" stroke="#383835" stroke-width="1"/>
<text x="58" y="480" font-size="10" fill="#898781" text-anchor="end">거래량</text>
<rect x="65.7" y="503.8" width="6.8" height="26.2" fill="#3987e5" opacity="0.55"/>
<rect x="76.0" y="513.6" width="6.8" height="16.4" fill="#3987e5" opacity="0.55"/>
<rect x="86.2" y="515.5" width="6.8" height="14.5" fill="#e66767" opacity="0.55"/>
<rect x="96.5" y="505.2" width="6.8" height="24.8" fill="#e66767" opacity="0.55"/>
<rect x="106.7" y="508.6" width="6.8" height="21.4" fill="#3987e5" opacity="0.55"/>
<rect x="117.0" y="514.9" width="6.8" height="15.1" fill="#e66767" opacity="0.55"/>
<rect x="127.2" y="511.3" width="6.8" height="18.7" fill="#3987e5" opacity="0.55"/>
<rect x="137.4" y="510.4" width="6.8" height="19.6" fill="#e66767" opacity="0.55"/>
<rect x="147.7" y="511.6" width="6.8" height="18.4" fill="#e66767" opacity="0.55"/>
<rect x="157.9" y="514.9" width="6.8" height="15.1" fill="#3987e5" opacity="0.55"/>
<rect x="168.2" y="502.1" width="6.8" height="27.9" fill="#e66767" opacity="0.55"/>
<rect x="178.4" y="513.7" width="6.8" height="16.3" fill="#3987e5" opacity="0.55"/>
<rect x="188.7" y="506.2" width="6.8" height="23.8" fill="#e66767" opacity="0.55"/>
<rect x="198.9" y="514.3" width="6.8" height="15.7" fill="#3987e5" opacity="0.55"/>
<rect x="209.1" y="514.3" width="6.8" height="15.7" fill="#e66767" opacity="0.55"/>
<rect x="219.4" y="512.5" width="6.8" height="17.5" fill="#3987e5" opacity="0.55"/>
<rect x="229.6" y="499.8" width="6.8" height="30.2" fill="#e66767" opacity="0.55"/>
<rect x="239.9" y="495.4" width="6.8" height="34.6" fill="#e66767" opacity="0.55"/>
<rect x="250.1" y="499.4" width="6.8" height="30.6" fill="#e66767" opacity="0.55"/>
<rect x="260.3" y="507.7" width="6.8" height="22.3" fill="#e66767" opacity="0.55"/>
<rect x="270.6" y="491.2" width="6.8" height="38.8" fill="#e66767" opacity="0.55"/>
<rect x="280.8" y="482.2" width="6.8" height="47.8" fill="#3987e5" opacity="0.55"/>
<rect x="291.1" y="492.8" width="6.8" height="37.2" fill="#e66767" opacity="0.55"/>
<rect x="301.3" y="498.5" width="6.8" height="31.5" fill="#3987e5" opacity="0.55"/>
<rect x="311.6" y="490.9" width="6.8" height="39.1" fill="#3987e5" opacity="0.55"/>
<rect x="321.8" y="496.2" width="6.8" height="33.8" fill="#e66767" opacity="0.55"/>
<rect x="332.0" y="506.1" width="6.8" height="23.9" fill="#3987e5" opacity="0.55"/>
<rect x="342.3" y="501.1" width="6.8" height="28.9" fill="#e66767" opacity="0.55"/>
<rect x="352.5" y="503.4" width="6.8" height="26.6" fill="#e66767" opacity="0.55"/>
<rect x="362.8" y="513.6" width="6.8" height="16.4" fill="#3987e5" opacity="0.55"/>
<rect x="373.0" y="504.4" width="6.8" height="25.6" fill="#e66767" opacity="0.55"/>
<rect x="383.3" y="490.6" width="6.8" height="39.4" fill="#3987e5" opacity="0.55"/>
<rect x="393.5" y="497.5" width="6.8" height="32.5" fill="#e66767" opacity="0.55"/>
<rect x="403.7" y="485.5" width="6.8" height="44.5" fill="#3987e5" opacity="0.55"/>
<rect x="414.0" y="500.7" width="6.8" height="29.3" fill="#e66767" opacity="0.55"/>
<rect x="424.2" y="499.5" width="6.8" height="30.5" fill="#3987e5" opacity="0.55"/>
<rect x="434.5" y="509.4" width="6.8" height="20.6" fill="#e66767" opacity="0.55"/>
<rect x="444.7" y="499.8" width="6.8" height="30.2" fill="#3987e5" opacity="0.55"/>
<rect x="455.0" y="495.5" width="6.8" height="34.5" fill="#e66767" opacity="0.55"/>
<rect x="465.2" y="499.3" width="6.8" height="30.7" fill="#e66767" opacity="0.55"/>
<rect x="475.4" y="530.0" width="6.8" height="0.0" fill="#3987e5" opacity="0.55"/>
<rect x="485.7" y="495.4" width="6.8" height="34.6" fill="#e66767" opacity="0.55"/>
<rect x="495.9" y="502.4" width="6.8" height="27.6" fill="#3987e5" opacity="0.55"/>
<rect x="506.2" y="509.8" width="6.8" height="20.2" fill="#e66767" opacity="0.55"/>
<rect x="516.4" y="511.0" width="6.8" height="19.0" fill="#e66767" opacity="0.55"/>
<rect x="526.7" y="509.2" width="6.8" height="20.8" fill="#e66767" opacity="0.55"/>
<rect x="536.9" y="499.7" width="6.8" height="30.3" fill="#e66767" opacity="0.55"/>
<rect x="547.1" y="491.0" width="6.8" height="39.0" fill="#3987e5" opacity="0.55"/>
<rect x="557.4" y="503.0" width="6.8" height="27.0" fill="#e66767" opacity="0.55"/>
<rect x="567.6" y="488.0" width="6.8" height="42.0" fill="#3987e5" opacity="0.55"/>
<rect x="577.9" y="490.9" width="6.8" height="39.1" fill="#e66767" opacity="0.55"/>
<rect x="588.1" y="494.5" width="6.8" height="35.5" fill="#e66767" opacity="0.55"/>
<rect x="598.3" y="491.0" width="6.8" height="39.0" fill="#3987e5" opacity="0.55"/>
<rect x="608.6" y="502.8" width="6.8" height="27.2" fill="#3987e5" opacity="0.55"/>
<rect x="618.8" y="503.3" width="6.8" height="26.7" fill="#e66767" opacity="0.55"/>
<rect x="629.1" y="507.7" width="6.8" height="22.3" fill="#3987e5" opacity="0.55"/>
<rect x="639.3" y="489.9" width="6.8" height="40.1" fill="#3987e5" opacity="0.55"/>
<rect x="649.6" y="488.3" width="6.8" height="41.7" fill="#e66767" opacity="0.55"/>
<rect x="659.8" y="507.9" width="6.8" height="22.1" fill="#3987e5" opacity="0.55"/>
<rect x="670.0" y="496.8" width="6.8" height="33.2" fill="#3987e5" opacity="0.55"/>
<rect x="680.3" y="493.6" width="6.8" height="36.4" fill="#3987e5" opacity="0.55"/>
<rect x="690.5" y="497.3" width="6.8" height="32.7" fill="#3987e5" opacity="0.55"/>
<rect x="700.8" y="504.8" width="6.8" height="25.2" fill="#3987e5" opacity="0.55"/>
<rect x="711.0" y="488.0" width="6.8" height="42.0" fill="#3987e5" opacity="0.55"/>
<rect x="721.3" y="475.5" width="6.8" height="54.5" fill="#e66767" opacity="0.55"/>
<rect x="731.5" y="501.8" width="6.8" height="28.2" fill="#3987e5" opacity="0.55"/>
<path d="M263.7,508.8 L274.0,508.1 L284.2,506.6 L294.5,505.4 L304.7,505.1 L314.9,504.2 L325.2,503.3 L335.4,503.0 L345.7,502.5 L355.9,502.1 L366.2,502.1 L376.4,502.2 L386.6,501.0 L396.9,500.6 L407.1,499.2 L417.4,498.5 L427.6,497.8 L437.8,498.3 L448.1,498.5 L458.3,498.3 L468.6,497.9 L478.8,499.9 L489.1,500.5 L499.3,501.0 L509.5,501.6 L519.8,502.6 L530.0,503.2 L540.3,502.9 L550.5,502.4 L560.8,502.4 L571.0,501.1 L581.2,500.4 L591.5,500.6 L601.7,500.3 L612.0,501.1 L622.2,501.3 L632.5,501.7 L642.7,500.7 L652.9,500.1 L663.2,500.7 L673.4,500.6 L683.7,498.8 L693.9,498.9 L704.2,499.0 L714.4,497.9 L724.6,496.2 L734.9,495.8" fill="none" stroke="#008300" stroke-width="2"/>
<text x="69.1" y="548" font-size="10" fill="#898781" text-anchor="middle">04/09</text>
<text x="181.8" y="548" font-size="10" fill="#898781" text-anchor="middle">04/24</text>
<text x="294.5" y="548" font-size="10" fill="#898781" text-anchor="middle">05/13</text>
<text x="407.1" y="548" font-size="10" fill="#898781" text-anchor="middle">05/29</text>
<text x="519.8" y="548" font-size="10" fill="#898781" text-anchor="middle">06/16</text>
<text x="632.5" y="548" font-size="10" fill="#898781" text-anchor="middle">07/01</text>
</svg>