<svg xmlns="http://www.w3.org/2000/svg" width="760" height="250" viewBox="0 0 760 250" font-family='system-ui,-apple-system,"Segoe UI","Malgun Gothic","Apple SD Gothic Neo",sans-serif'>
<rect width="760" height="250" fill="#1a1a19"/>
<text x="20" y="28" font-size="14.5" font-weight="700" fill="#ffffff">KDJ (9,3,3)</text>
<text x="20" y="46" font-size="11" fill="#c3c2b7">80 이상 과매수 · 20 이하 과매도.</text>
<line x1="617" y1="24" x2="635" y2="24" stroke="#3987e5" stroke-width="2"/>
<text x="640" y="28" font-size="10.5" fill="#c3c2b7">K</text>
<line x1="658" y1="24" x2="676" y2="24" stroke="#008300" stroke-width="2"/>
<text x="681" y="28" font-size="10.5" fill="#c3c2b7">D</text>
<line x1="699" y1="24" x2="717" y2="24" stroke="#d55181" stroke-width="2" stroke-dasharray="4 3"/>
<text x="722" y="28" font-size="10.5" fill="#c3c2b7">J</text>
<line x1="64" y1="220.0" x2="740" y2="220.0" stroke="#2c2c2a" stroke-width="1"/>
<text x="58" y="223.5" font-size="10" fill="#898781" text-anchor="end" style="font-variant-numeric:tabular-nums">-21</text>
<line x1="64" y1="168.0" x2="740" y2="168.0" stroke="#2c2c2a" stroke-width="1"/>
<text x="58" y="171.5" font-size="10" fill="#898781" text-anchor="end" style="font-variant-numeric:tabular-nums">26</text>
<line x1="64" y1="116.0" x2="740" y2="116.0" stroke="#2c2c2a" stroke-width="1"/>
<text x="58" y="119.5" font-size="10" fill="#898781" text-anchor="end" style="font-variant-numeric:tabular-nums">73</text>
<line x1="64" y1="64.0" x2="740" y2="64.0" stroke="#2c2c2a" stroke-width="1"/>
<text x="58" y="67.5" font-size="10" fill="#898781" text-anchor="end" style="font-variant-numeric:tabular-nums">120</text>
<line x1="64" y1="108.2" x2="740" y2="108.2" stroke="#898781" stroke-width="1" stroke-dasharray="3 4"/>
<text x="742" y="111.2" font-size="9" fill="#898781">80</text>
<line x1="64" y1="174.9" x2="740" y2="174.9" stroke="#898781" stroke-width="1" stroke-dasharray="3 4"/>
<text x="742" y="177.9" font-size="9" fill="#898781">20</text>
<path d="M69.1,126.5 L79.4,117.3 L89.6,109.4 L99.8,104.5 L110.1,102.7 L120.3,99.3 L130.6,100.7 L140.8,97.6 L151.1,94.4 L161.3,93.1 L171.5,96.5 L181.8,101.8 L192.0,101.2 L202.3,101.2 L212.5,102.4 L222.8,105.2 L233.0,99.2 L243.2,95.9 L253.5,93.4 L263.7,91.2 L274.0,93.1 L284.2,97.8 L294.5,94.6 L304.7,93.0 L314.9,100.5 L325.2,108.8 L335.4,122.8 L345.7,133.4 L355.9,124.3 L366.2,118.1 L376.4,110.6 L386.6,108.8 L396.9,105.0 L407.1,101.1 L417.4,97.9 L427.6,96.4 L437.8,99.5 L448.1,120.2 L458.3,142.1 L468.6,136.3 L478.8,143.6 L489.1,144.9 L499.3,142.5 L509.5,131.6 L519.8,117.6 L530.0,107.2 L540.3,102.3 L550.5,101.9 L560.8,97.6 L571.0,108.4 L581.2,116.0 L591.5,109.6 L601.7,118.3 L612.0,127.9 L622.2,137.3 L632.5,149.8 L642.7,165.6 L652.9,161.1 L663.2,161.4 L673.4,167.1 L683.7,175.7 L693.9,175.4 L704.2,175.4 L714.4,182.4 L724.6,176.7 L734.9,165.2" fill="none" stroke="#3987e5" stroke-width="1.8"/>
<path d="M69.1,144.3 L79.4,135.3 L89.6,126.7 L99.8,119.3 L110.1,113.8 L120.3,109.0 L130.6,106.2 L140.8,103.3 L151.1,100.3 L161.3,97.9 L171.5,97.5 L181.8,98.9 L192.0,99.7 L202.3,100.2 L212.5,100.9 L222.8,102.3 L233.0,101.3 L243.2,99.5 L253.5,97.5 L263.7,95.4 L274.0,94.6 L284.2,95.7 L294.5,95.3 L304.7,94.6 L314.9,96.5 L325.2,100.6 L335.4,108.0 L345.7,116.5 L355.9,119.1 L366.2,118.7 L376.4,116.0 L386.6,113.6 L396.9,110.8 L407.1,107.5 L417.4,104.3 L427.6,101.7 L437.8,101.0 L448.1,107.4 L458.3,118.9 L468.6,124.7 L478.8,131.0 L489.1,135.6 L499.3,137.9 L509.5,135.8 L519.8,129.8 L530.0,122.2 L540.3,115.6 L550.5,111.1 L560.8,106.6 L571.0,107.2 L581.2,110.1 L591.5,109.9 L601.7,112.7 L612.0,117.8 L622.2,124.3 L632.5,132.8 L642.7,143.7 L652.9,149.5 L663.2,153.5 L673.4,158.0 L683.7,163.9 L693.9,167.7 L704.2,170.3 L714.4,174.3 L724.6,175.1 L734.9,171.8" fill="none" stroke="#008300" stroke-width="1.8"/>
<path d="M69.1,91.0 L79.4,81.3 L89.6,74.8 L99.8,75.1 L110.1,80.7 L120.3,80.1 L130.6,89.8 L140.8,86.1 L151.1,82.4 L161.3,83.5 L171.5,94.5 L181.8,107.6 L192.0,104.4 L202.3,103.1 L212.5,105.3 L222.8,111.0 L233.0,95.1 L243.2,88.7 L253.5,85.4 L263.7,82.8 L274.0,90.0 L284.2,102.1 L294.5,93.2 L304.7,89.9 L314.9,108.4 L325.2,125.1 L335.4,152.4 L345.7,167.3 L355.9,134.7 L366.2,116.7 L376.4,99.8 L386.6,99.1 L396.9,93.5 L407.1,88.3 L417.4,85.1 L427.6,85.7 L437.8,96.6 L448.1,145.9 L458.3,188.3 L468.6,159.3 L478.8,168.7 L489.1,163.4 L499.3,151.7 L509.5,123.3 L519.8,93.4 L530.0,77.1 L540.3,75.8 L550.5,83.7 L560.8,79.6 L571.0,110.8 L581.2,127.8 L591.5,108.9 L601.7,129.5 L612.0,148.1 L622.2,163.3 L632.5,183.8 L642.7,209.2 L652.9,184.3 L663.2,177.2 L673.4,185.4 L683.7,199.4 L693.9,190.6 L704.2,185.7 L714.4,198.5 L724.6,179.8 L734.9,152.0" fill="none" stroke="#d55181" stroke-width="1.8" stroke-dasharray="4 3"/>
<text x="69.1" y="238" font-size="10" fill="#898781" text-anchor="middle">04/09</text>
<text x="181.8" y="238" font-size="10" fill="#898781" text-anchor="middle">04/24</text>
<text x="294.5" y="238" font-size="10" fill="#898781" text-anchor="middle">05/13</text>
<text x="407.1" y="238" font-size="10" fill="#898781" text-anchor="middle">05/29</text>
<text x="519.8" y="238" font-size="10" fill="#898781" text-anchor="middle">06/16</text>
<text x="632.5" y="238" font-size="10" fill="#898781" text-anchor="middle">07/01</text>
</svg>